#!OML:ASF G:\JayActor3\Patient Classification 1\Patient 1\Session 6\male.ASF
:FULLY-SPECIFIED
:DEGREES
731
root 4.04088 16.2862 -24.8427 211.974 -88.5035 -214.342
lowerback 2.95305 -0.30333 2.16399
upperback 10.6203 -1.11761 1.93366
thorax 9.57647 -0.67611 0.752886
lowerneck 8.67309 -7.60416 -0.514966
upperneck -2.25514 -9.99349 4.41991
head -1.93177 -5.10831 1.90646
rclavicle 1.19271e-015 -1.98785e-014
rhumerus -20.3353 -3.0378 -71.5162
rradius 71.7274
rwrist -32.2676
rhand -39.0045 -22.9769
rfingers 7.12502
rthumb -12.008 -52.6124
lclavicle 1.19271e-015 -1.98785e-014
lhumerus -48.2504 25.4473 59.321
lradius 17.1106
lwrist 17.716
lhand -18.9176 10.3024
lfingers 7.12502
lthumb 7.38465 40.1535
rfemur -16.9866 -5.8845 20.3369
rtibia 41.1197
rfoot -27.0086 -15.0376
rtoes 13.003
lfemur -2.10366 2.41458 -11.2757
ltibia 28.1313
lfoot -6.16675 -22.4083
ltoes 12.4527
732
root 4.0336 16.2954 -24.8706 243.974 -89.0153 -246.221
lowerback 2.94873 -0.260934 2.37144
upperback 10.6114 -1.07733 2.11378
thorax 9.57229 -0.647037 0.831242
lowerneck 8.62485 -7.21065 -0.103316
upperneck -2.39929 -9.45794 3.44273
head -2.05199 -4.81521 1.51463
rclavicle 2.38542e-015 2.38542e-015
rhumerus -21.3464 -3.72737 -71.3993
rradius 73.0313
rwrist -32.1051
rhand -39.6962 -22.7652
rfingers 7.12502
rthumb -12.6749 -52.3605
lclavicle 2.38542e-015 2.38542e-015
lhumerus -47.9935 24.8029 60.339
lradius 17.3119
lwrist 18.8553
lhand -19.0134 10.0274
lfingers 7.12502
lthumb 7.29219 39.8818
rfemur -16.9139 -6.09976 20.3467
rtibia 40.9925
rfoot -27.3833 -15.3313
rtoes 13.3938
lfemur -2.6001 2.33557 -11.2805
ltibia 28.4308
lfoot -5.72 -22.5436
ltoes 12.7422
733
root 4.0263 16.3062 -24.898 292.131 -88.9261 -294.243
lowerback 2.93866 -0.2157 2.56194
upperback 10.5751 -1.02975 2.2943
thorax 9.54065 -0.615182 0.919852
lowerneck 8.57322 -6.80025 0.281797
upperneck -2.49447 -8.91039 2.45324
head -2.14862 -4.51553 1.12088
rclavicle 1.55052e-014 7.95139e-015
rhumerus -22.3295 -4.44096 -71.2881
rradius 74.2293
rwrist -32.1145
rhand -40.3532 -22.4797
rfingers 7.12502
rthumb -13.3083 -52.0348
lclavicle 1.55052e-014 7.95139e-015
lhumerus -47.7268 24.1417 61.3833
lradius 17.4924
lwrist 20.0121
lhand -18.991 9.78595
lfingers 7.12502
lthumb 7.31381 39.6395
rfemur -16.8563 -6.27449 20.3397
rtibia 40.8591
rfoot -27.7775 -15.6423
rtoes 13.8066
lfemur -3.12911 2.265 -11.3098
ltibia 28.7489
lfoot -5.19098 -22.6594
ltoes 13.0916
734
root 4.01906 16.318 -24.9241 317.407 -88.335 -319.382
lowerback 2.93578 -0.157242 2.7554
upperback 10.5306 -0.961681 2.45818
thorax 9.49513 -0.571946 0.990196
lowerneck 8.48179 -6.39758 0.701614
upperneck -2.55456 -8.37676 1.43137
head -2.22329 -4.22237 0.70851
rclavicle -3.18055e-015 2.06736e-014
rhumerus -23.2629 -5.21171 -71.1905
rradius 75.3113
rwrist -32.3675
rhand -40.9586 -22.0904
rfingers 7.12502
rthumb -13.8917 -51.6064
lclavicle -3.18055e-015 2.06736e-014
lhumerus -47.4213 23.4875 62.4158
lradius 17.6458
lwrist 21.1129
lhand -18.8011 9.58106
lfingers 7.12502
lthumb 7.49714 39.4282
rfemur -16.8041 -6.41329 20.3043
rtibia 40.724
rfoot -28.1753 -15.9662
rtoes 14.2114
lfemur -3.67061 2.20072 -11.3733
ltibia 29.0838
lfoot -4.60487 -22.7441
ltoes 13.461
735
root 4.01187 16.3304 -24.9489 327.916 -87.6068 -329.758
lowerback 2.94658 -0.1001 2.94391
upperback 10.4686 -0.892177 2.61556
thorax 9.42191 -0.527992 1.05634
lowerneck 8.39193 -5.99143 1.11064
upperneck -2.58535 -7.84476 0.395089
head -2.28308 -3.9302 0.291555
rclavicle -7.95139e-016 1.98785e-014
rhumerus -24.1505 -5.97507 -71.0983
rradius 76.266
rwrist -32.8495
rhand -41.5231 -21.5466
rfingers 7.12502
rthumb -14.4357 -51.0246
lclavicle -7.95139e-016 1.98785e-014
lhumerus -47.143 22.8238 63.4552
lradius 17.8262
lwrist 22.1984
lhand -18.4517 9.48202
lfingers 7.12502
lthumb 7.83434 39.3169
rfemur -16.7524 -6.52069 20.2512
rtibia 40.5914
rfoot -28.5811 -16.2889
rtoes 14.6185
lfemur -4.22086 2.153 -11.4558
ltibia 29.4404
lfoot -3.95611 -22.8064
ltoes 13.844
736
root 4.00495 16.3428 -24.9717 332.754 -86.8459 -334.47
lowerback 2.97315 -0.0442605 3.12037
upperback 10.3973 -0.820951 2.75829
thorax 9.32864 -0.483499 1.11347
lowerneck 8.30772 -5.58951 1.51768
upperneck -2.60906 -7.32272 -0.655087
head -2.33681 -3.6434 -0.131351
rclavicle -1.03368e-014 -1.11319e-014
rhumerus -24.9965 -6.72146 -71.0105
rradius 77.1098
rwrist -33.4537
rhand -42.081 -20.7396
rfingers 7.12502
rthumb -14.9731 -50.1783
lclavicle -1.03368e-014 -1.11319e-014
lhumerus -46.8892 22.1779 64.484
lradius 18.0344
lwrist 23.2343
lhand -17.9677 9.53335
lfingers 7.12502
lthumb 8.30147 39.3502
rfemur -16.7 -6.61736 20.1565
rtibia 40.4653
rfoot -28.9777 -16.5971
rtoes 15.0123
lfemur -4.77515 2.12555 -11.5774
ltibia 29.8227
lfoot -3.26611 -22.8484
ltoes 14.2009
737
root 3.9981 16.3547 -24.9925 335.403 -86.0989 -337.004
lowerback 3.01212 0.01767 3.31162
upperback 10.3238 -0.740259 2.89169
thorax 9.22588 -0.432903 1.15264
lowerneck 8.20974 -5.19892 1.89431
upperneck -2.61853 -6.82089 -1.68271
head -2.37605 -3.36803 -0.545421
rclavicle 1.98785e-015 7.95139e-015
rhumerus -25.802 -7.46112 -70.918
rradius 77.8492
rwrist -34.0003
rhand -42.6765 -19.7727
rfingers 7.12502
rthumb -15.5468 -49.1678
lclavicle 1.98785e-015 7.95139e-015
lhumerus -46.6459 21.5699 65.489
lradius 18.2541
lwrist 24.1567
lhand -17.3689 9.71695
lfingers 7.12502
lthumb 8.87941 39.5101
rfemur -16.6415 -6.7158 20.0426
rtibia 40.3468
rfoot -29.3546 -16.8811
rtoes 15.3751
lfemur -5.32907 2.13501 -11.7112
ltibia 30.2381
lfoot -2.55252 -22.8844
ltoes 14.4955
738
root 3.99122 16.3661 -25.0113 336.952 -85.3567 -338.458
lowerback 3.0661 0.0834023 3.51269
upperback 10.2556 -0.653701 3.01653
thorax 9.12051 -0.378614 1.17727
lowerneck 8.04605 -4.82572 2.231
upperneck -2.58224 -6.34751 -2.68079
head -2.38054 -3.10904 -0.94821
rclavicle -7.95139e-015 -3.18055e-014
rhumerus -26.5813 -8.19816 -70.8107
rradius 78.5165
rwrist -34.3114
rhand -43.3424 -18.701
rfingers 7.12502
rthumb -16.1881 -48.0451
lclavicle -7.95139e-015 -3.18055e-014
lhumerus -46.4017 20.9861 66.487
lradius 18.4858
lwrist 24.9639
lhand -16.6819 10.0193
lfingers 7.12502
lthumb 9.54228 39.7832
rfemur -16.5636 -6.84341 19.8981
rtibia 40.2362
rfoot -29.7118 -17.1294
rtoes 15.7019
lfemur -5.87891 2.17514 -11.8629
ltibia 30.6911
lfoot -1.81941 -22.9254
ltoes 14.7502
739
root 3.98443 16.3766 -25.0284 337.938 -84.632 -339.362
lowerback 3.12603 0.15371 3.72061
upperback 10.1916 -0.560994 3.1396
thorax 9.01683 -0.321053 1.1962
lowerneck 7.8438 -4.46234 2.51683
upperneck -2.52033 -5.8914 -3.63523
head -2.36118 -2.8614 -1.33206
rclavicle 9.14409e-015 5.56597e-014
rhumerus -27.3504 -8.91913 -70.6808
rradius 79.1437
rwrist -34.2774
rhand -44.0765 -17.6425
rfingers 7.12502
rthumb -16.8948 -46.9276
lclavicle 9.14409e-015 5.56597e-014
lhumerus -46.1613 20.4438 67.4641
lradius 18.7117
lwrist 25.6195
lhand -15.9349 10.4069
lfingers 7.12502
lthumb 10.2629 40.1366
rfemur -16.475 -6.99526 19.7364
rtibia 40.134
rfoot -30.0469 -17.3425
rtoes 15.9961
lfemur -6.43491 2.26129 -12.0204
ltibia 31.1898
lfoot -1.09699 -22.9782
ltoes 14.8992
740
root 3.978 16.3861 -25.0438 338.693 -83.9183 -340.057
lowerback 3.20659 0.208811 3.92619
upperback 10.1139 -0.487539 3.28071
thorax 8.88654 -0.274703 1.23405
lowerneck 7.6838 -4.09562 2.69415
upperneck -2.45811 -5.43875 -4.53796
head -2.33869 -2.61707 -1.68251
rclavicle 7.95139e-016 -1.27222e-014
rhumerus -28.148 -9.55025 -70.4994
rradius 79.7672
rwrist -33.9025
rhand -44.8498 -16.7394
rfingers 7.12502
rthumb -17.6391 -45.9593
lclavicle 7.95139e-016 -1.27222e-014
lhumerus -46.0017 20.0332 68.3657
lradius 18.8944
lwrist 26.0348
lhand -15.1277 10.7591
lfingers 7.12502
lthumb 11.0416 40.4487
rfemur -16.3658 -7.18658 19.5665
rtibia 40.0435
rfoot -30.3545 -17.523
rtoes 16.2361
lfemur -6.99242 2.38253 -12.1747
ltibia 31.7403
lfoot -0.402515 -23.0398
ltoes 14.9151
741
root 3.97176 16.3942 -25.0583 339.302 -83.2214 -340.623
lowerback 3.29655 0.259417 4.1247
upperback 10.032 -0.419791 3.43522
thorax 8.74658 -0.232963 1.28927
lowerneck 7.525 -3.72652 2.79534
upperneck -2.383 -4.98676 -5.38661
head -2.30283 -2.37537 -2.00457
rclavicle 1.59028e-015 1.43125e-014
rhumerus -28.9719 -10.1226 -70.2695
rradius 80.4092
rwrist -33.2638
rhand -45.635 -15.9613
rfingers 7.12502
rthumb -18.3946 -45.1116
lclavicle 1.59028e-015 1.43125e-014
lhumerus -45.8685 19.7152 69.2131
lradius 19.0102
lwrist 26.2297
lhand -14.2797 11.0321
lfingers 7.12502
lthumb 11.8594 40.6762
rfemur -16.2494 -7.39403 19.3992
rtibia 39.9731
rfoot -30.6495 -17.6829
rtoes 16.4348
lfemur -7.56242 2.54808 -12.3213
ltibia 32.3507
lfoot 0.253179 -23.1073
ltoes 14.7779
742
root 3.96632 16.4004 -25.0719 339.789 -82.5382 -341.087
lowerback 3.4016 0.305458 4.31477
upperback 9.95044 -0.357628 3.59966
thorax 8.59872 -0.195774 1.35896
lowerneck 7.40595 -3.36112 2.86946
upperneck -2.34084 -4.54101 -6.2082
head -2.2794 -2.13755 -2.31462
rclavicle -3.97569e-015 2.54444e-014
rhumerus -29.8207 -10.6394 -69.9895
rradius 81.0906
rwrist -32.4787
rhand -46.3828 -15.253
rfingers 7.12502
rthumb -19.1139 -44.3338
lclavicle -3.97569e-015 2.54444e-014
lhumerus -45.7474 19.4428 70.0386
lradius 19.0669
lwrist 26.2599
lhand -13.3987 11.1951
lfingers 7.12502
lthumb 12.7089 40.7884
rfemur -16.1323 -7.62181 19.2307
rtibia 39.9348
rfoot -30.9305 -17.8234
rtoes 16.5919
lfemur -8.14533 2.7539 -12.4677
ltibia 33.0258
lfoot 0.851122 -23.174
ltoes 14.4745
743
root 3.96176 16.4041 -25.085 340.157 -81.885 -341.447
lowerback 3.51933 0.358334 4.4977
upperback 9.87846 -0.286308 3.76743
thorax 8.45466 -0.155368 1.43618
lowerneck 7.29521 -3.00131 2.94402
upperneck -2.323 -4.10157 -7.00139
head -2.26079 -1.90405 -2.61771
rclavicle 3.4191e-014 3.18055e-015
rhumerus -30.6804 -11.1196 -69.6676
rradius 81.8134
rwrist -31.6399
rhand -47.0574 -14.6023
rfingers 7.12502
rthumb -19.7624 -43.6176
lclavicle 3.4191e-014 3.18055e-015
lhumerus -45.6039 19.1831 70.8603
lradius 19.0685
lwrist 26.178
lhand -12.5264 11.2938
lfingers 7.12502
lthumb 13.5497 40.8329
rfemur -16.0293 -7.8537 19.0665
rtibia 39.9418
rfoot -31.2002 -17.9468
rtoes 16.7106
lfemur -8.73958 3.00827 -12.6147
ltibia 33.7667
lfoot 1.37999 -23.2224
ltoes 14.0328
744
root 3.95828 16.4051 -25.0975 340.325 -81.2634 -341.621
lowerback 3.65033 0.424598 4.66439
upperback 9.82607 -0.196787 3.92584
thorax 8.3249 -0.107194 1.51302
lowerneck 7.16742 -2.65138 3.06192
upperneck -2.32909 -3.67131 -7.78066
head -2.24421 -1.6765 -2.9269
rclavicle 2.38542e-014 2.8625e-014
rhumerus -31.5298 -11.5826 -69.3213
rradius 82.5803
rwrist -30.8001
rhand -47.6318 -13.9141
rfingers 7.12502
rthumb -20.3146 -42.8716
lclavicle 2.38542e-014 2.8625e-014
lhumerus -45.4037 18.7985 71.7739
lradius 19.0771
lwrist 26.1656
lhand -11.7244 11.3876
lfingers 7.12502
lthumb 14.3226 40.8736
rfemur -15.9516 -8.08877 18.8899
rtibia 40.0043
rfoot -31.4588 -18.0505
rtoes 16.8054
lfemur -9.34003 3.29996 -12.7842
ltibia 34.5683
lfoot 1.81056 -23.23
ltoes 13.491
